<svg xmlns="http://www.w3.org/2000/svg" width="2560.731" height="1355.842"><path d="M1079.28 741.675c36.628-65.823 91.242-131.33 151.612-181.848 97.078-81.238 214.402-132.952 337.804-148.898 6.875-.888 13.017-2.152 13.649-2.81.631-.656 53.926-99.864 118.433-220.46 64.506-120.597 117.602-218.922 117.99-218.5.64.694 409.72 765.009 414.808 775.016l2.16 4.25h-66.955l-8.192-12.25c-38.136-57.023-88.485-110.071-143.393-151.08-82.182-61.378-175.44-99.925-277.267-114.604-7.846-1.131-18.083-2.35-22.75-2.709-4.666-.358-8.483-.953-8.483-1.322 0-.591 28.775-55.009 29.547-55.877.535-.602 29.446 3.902 44.953 7.004 92.086 18.422 175.707 54.009 251.187 106.897 13.595 9.526 18.313 11.702 18.313 8.447 0-1.606-230.44-433.143-232.445-435.292-.66-.708-1.874-1.029-2.697-.713-.824.316-79.451 146.303-174.728 324.414-95.276 178.112-173.77 324.577-174.43 325.478-1.077 1.469-4.605 1.61-34.332 1.372l-33.132-.265 67.95-127c81.898-153.07 76.366-142.376 74.566-144.176-1.208-1.208-3.04-1.053-13.01 1.103-50.7 10.962-93.815 25.907-140.242 48.614-26.008 12.72-42.459 22.153-67 38.418-67.616 44.812-124.177 101.18-168.855 168.278l-10.145 15.237-34.336.013-34.336.013z" style="fill:#ef3f22" transform="translate(-379.264 30.843)"/><path d="M226.557 1145.716c3.994-9.999 148.386-329.458 149.149-329.984.586-.404 14.398-.742 30.693-.75 22.498-.012 29.877.285 30.665 1.234.79.953 141.13 311.835 147.848 327.515l1.398 3.264-30.584-.264-30.585-.265-20.369-46.35c-11.203-25.493-20.66-46.643-21.018-47-1.039-1.04-150.96-1.302-153.619-.268-1.94.753-6.013 9.261-22.748 47.518l-20.384 46.6H256.53c-23.978 0-30.366-.266-29.973-1.25m235.305-143.125c.29-.757-11.794-29.894-26.854-64.75-21.906-50.703-27.746-63.375-29.207-63.375-1.467 0-7.116 12.49-28.703 63.464-14.782 34.906-26.654 64.043-26.383 64.75.757 1.972 110.39 1.883 111.147-.09zm243.871 143.125c-.261-.687-.36-75.275-.218-165.75l.257-164.5 35.617-.262c27.723-.204 35.848.017 36.66 1 .573.694 28.824 53.912 62.779 118.262s62.193 117.296 62.75 117.658 1.503.463 2.103.226 28.507-52.407 62.016-115.931 61.743-116.845 62.743-118.489l1.818-2.989 35.757.263 35.757.262v331l-26.75.267-26.75.266-.015-123.266c-.01-69.62-.4-123.874-.9-124.662-.486-.768-1.511-1.155-2.279-.86-.767.294-27.786 49.972-60.042 110.395l-58.646 109.86h-47.23l-58.648-109.86c-32.256-60.422-59.276-110.1-60.044-110.395-.77-.295-1.796.092-2.282.86-.499.788-.89 55.035-.899 124.645l-.015 123.25H732.74c-20.304 0-26.642-.293-27.006-1.25zm570 0c-.261-.687-.36-75.275-.218-165.75l.257-164.5 92.5.026c83.297.023 93.62.201 103.764 1.787 38.4 6.002 63.33 22.129 75.743 48.997 9.869 21.36 11.824 51.359 5.08 77.944-8.23 32.447-30.45 56.06-62.161 66.057-19.037 6.002-19.137 6.009-92.926 6.623l-68 .566-.258 64.75-.257 64.75h-26.524c-20.3 0-26.636-.293-27-1.25m189.73-179.484c9.188-2.573 12.583-4.211 19.642-9.477 10.662-7.955 16.866-21.628 17.826-39.289 1.439-26.46-9.414-44.275-31.51-51.722-6.582-2.219-7.327-2.245-72.99-2.556-49.557-.235-66.699-.02-67.75.854-1.964 1.63-2.117 101.815-.16 103.777.983.984 14.742 1.18 64.25.91 60.9-.332 63.257-.415 70.692-2.497m204.809 14.734V814.96l135.25.254 135.25.253v47l-108 .5-108 .5v88l102.5.5 102.5.5v47l-102.5.5-102.5.5-.26 49.246-.26 49.245 108.26.255 108.26.254v47l-135.25.254-135.25.254zm417.247.267.253-165.767 98 .022c88.664.02 99.073.19 109.264 1.787 38.421 6.02 63.33 22.135 75.743 49.001 7.315 15.832 10.44 36.71 8.545 57.076-3.516 37.79-19.62 63.931-49.383 80.162-4.872 2.657-6.708 4.188-6.402 5.339.236.888 16.472 31.955 36.08 69.039 19.61 37.083 35.653 67.802 35.653 68.264s-13.572.72-30.16.575l-30.16-.264-34.204-64.5-34.204-64.5-62.629-.258-62.629-.257-.257 64.757-.257 64.758-26.753.266-26.753.266zm200.944-14.996c9.192-2.58 12.587-4.219 19.642-9.483 10.662-7.954 16.866-21.627 17.826-39.288 1.454-26.733-9.686-44.73-32.04-51.76-7.1-2.233-7.323-2.24-79.62-2.24h-72.5l-.26 51.5c-.142 28.325-.035 52.085.239 52.8.403 1.055 13.597 1.238 69.76.965 67.382-.327 69.47-.394 76.953-2.494m228.27 179.48c-.261-.688-.36-75.276-.218-165.75l.257-164.5 135.25-.254 135.25-.254v47.998l-108.25.255-108.25.254v88l102.768.255 102.768.255-.268 23.745-.268 23.745-102.5.5-102.5.5v98l108.25.255 108.25.254v47.991H2652.24c-107.105 0-135.13-.258-135.506-1.25" style="fill:#fff" transform="translate(-226.54 208.843)"/></svg>