<?xml version="1.0" encoding="utf-8"?>
<!-- Generator: Adobe Illustrator 25.2.1, SVG Export Plug-In . SVG Version: 6.00 Build 0)  -->
<svg version="1.1" id="Layer_1" xmlns="http://www.w3.org/2000/svg" xmlns:xlink="http://www.w3.org/1999/xlink" x="0px" y="0px"
	 viewBox="0 0 5000 1288.06" style="enable-background:new 0 0 5000 1288.06;" xml:space="preserve">
<style type="text/css">
	.st0{fill:#FFFFFF;}
	.st1{opacity:0.2;fill:#FFFFFF;}
	.st2{opacity:0.4;fill:#FFFFFF;}
	.st3{opacity:0.6;fill:#FFFFFF;}
</style>
<g>
	<g>
		<path class="st0" d="M2099.84,347.52c29.12,30.18,43.68,73.33,43.68,129.45s-14.56,99.27-43.68,129.45
			c-29.12,30.18-71.04,45.27-125.75,45.27h-148.25V302.25h148.25C2028.8,302.25,2070.72,317.33,2099.84,347.52z M2029.68,556.39
			c13.77-17.64,20.65-44.12,20.65-79.42c0-35.29-6.88-61.77-20.65-79.42c-13.76-17.65-35.3-26.47-64.59-26.47h-48.18v211.78h48.18
			C1994.38,582.86,2015.92,574.04,2029.68,556.39z"/>
		<path class="st0" d="M2448.96,545.27h-180.54c2.82,16.59,8.91,28.77,18.26,36.54c9.35,7.76,21.79,11.65,37.33,11.65
			c13.06,0,23.74-2.47,32.04-7.41c8.29-4.94,13.85-12.18,16.68-21.71l73.07,23.3c-7.41,22.6-21.8,39.8-43.15,51.62
			c-21.36,11.83-47.57,17.73-78.63,17.73c-46.24,0-81.62-11.99-106.16-36c-24.54-24-36.79-57.88-36.79-101.66
			c0-43.76,12-77.65,36-101.66c24-24,58.06-36.01,102.19-36.01c42.71,0,75.45,11.74,98.22,35.21
			c22.76,23.48,34.15,56.39,34.15,98.75C2451.61,527.63,2450.73,537.51,2448.96,545.27z M2267.89,496.56h99.54
			c-4.23-34.59-20.48-51.89-48.72-51.89C2290.13,444.67,2273.18,461.97,2267.89,496.56z"/>
		<path class="st0" d="M2691.13,636.87c-8.82,6.01-20.04,10.86-33.62,14.56c-13.58,3.71-27.26,5.55-41.03,5.55
			c-31.42,0-55.42-6.69-72.01-20.12c-16.59-13.41-25.06-34.94-25.41-64.59V451.03h-45.54v-64.07h45.54v-59.3l90.01-24.88v84.18
			h79.42v64.07h-79.42v106.42c0,23.65,11.65,35.47,34.94,35.47c14.48,0,27.18-3.88,38.12-11.65L2691.13,636.87z"/>
		<path class="st0" d="M2981.49,545.27h-180.55c2.82,16.59,8.92,28.77,18.26,36.54c9.35,7.76,21.8,11.65,37.33,11.65
			c13.07,0,23.74-2.47,32.04-7.41c8.29-4.94,13.85-12.18,16.67-21.71l73.07,23.3c-7.42,22.6-21.8,39.8-43.15,51.62
			c-21.37,11.83-47.57,17.73-78.63,17.73c-46.24,0-81.62-11.99-106.15-36c-24.54-24-36.79-57.88-36.79-101.66
			c0-43.76,11.99-77.65,36-101.66c23.99-24,58.06-36.01,102.18-36.01c42.71,0,75.45,11.74,98.23,35.21
			c22.76,23.48,34.14,56.39,34.14,98.75C2984.14,527.63,2983.25,537.51,2981.49,545.27z M2800.41,496.56h99.54
			c-4.23-34.59-20.47-51.89-48.72-51.89C2822.66,444.67,2805.71,461.97,2800.41,496.56z"/>
		<path class="st0" d="M3221.7,387.49l-9.53,76.24c-3.54-2.12-8.29-3.98-14.3-5.56c-6-1.59-12.35-2.38-19.06-2.38
			c-16.94,0-31.07,5.39-42.36,16.15c-11.29,10.77-16.94,26.21-16.94,46.33v133.43h-90.01V386.96h79.42l3.7,57.18
			c6.36-20.12,16.32-35.56,29.92-46.33c13.58-10.76,30.45-16.15,50.56-16.15C3205.11,381.66,3214.64,383.61,3221.7,387.49z"/>
		<path class="st0" d="M3662.91,406.02c16.77,16.24,25.15,39.36,25.15,69.36v176.31h-90.01V496.03c0-30.35-12-45.54-36-45.54
			c-14.13,0-25.42,5.12-33.89,15.36c-8.48,10.24-12.72,25.06-12.72,44.47v141.37h-90.01V496.03c0-30.35-12-45.54-36-45.54
			c-13.42,0-24.54,5.12-33.36,15.36c-8.83,10.24-13.23,25.59-13.23,46.06v139.78h-90.01V386.96h80.48l2.64,50.83
			c8.48-18.35,20.3-32.3,35.48-41.83c15.18-9.53,32.99-14.3,53.48-14.3c20.11,0,37.49,4.59,52.14,13.76
			c14.65,9.19,25.15,22.42,31.51,39.72c8.47-17.29,20.56-30.53,36.26-39.72c15.71-9.17,33.27-13.76,52.68-13.76
			C3624.34,381.66,3646.14,389.79,3662.91,406.02z"/>
		<path class="st0" d="M3749.69,345.92c-8.3-6.88-12.45-17.73-12.45-32.56c0-15.17,4.15-26.21,12.45-33.09
			c8.29-6.88,21.62-10.32,39.97-10.32s31.68,3.44,39.98,10.32c8.29,6.88,12.44,17.92,12.44,33.09c0,14.83-4.15,25.68-12.44,32.56
			c-8.3,6.88-21.63,10.33-39.98,10.33S3757.97,352.81,3749.69,345.92z M3834.67,651.69h-90.01V386.96h90.01V651.69z"/>
		<path class="st0" d="M4133.44,406.02c16.59,16.24,24.87,39.36,24.87,69.36v176.31h-90.01V500.26c0-18-3.26-30.79-9.8-38.39
			c-6.53-7.58-15.79-11.38-27.8-11.38c-14.11,0-25.59,5.03-34.41,15.09c-8.83,10.05-13.25,25.5-13.25,46.33v139.78h-90.01V386.96
			h80.48l2.66,50.83c8.47-18.7,20.46-32.74,36-42.09c15.53-9.35,33.71-14.03,54.54-14.03
			C4094.61,381.66,4116.84,389.79,4133.44,406.02z"/>
		<path class="st0" d="M4489.06,598.22l-6.88,50.29c-10.24,5.65-22.23,8.47-36.01,8.47c-38.12,0-60.89-13.58-68.29-40.76
			c-15.89,27.19-47.3,40.76-94.24,40.76c-26.48,0-46.77-5.64-60.89-16.94c-14.13-11.29-21.19-27.7-21.19-49.24
			c0-22.59,8.02-40.85,24.09-54.8c16.06-13.94,42.44-24.62,79.15-32.04l59.84-11.65v-9.53c0-11.99-3.37-21.52-10.06-28.58
			c-6.71-7.06-15.89-10.59-27.53-10.59c-13.43,0-24.36,3.18-32.83,9.53c-8.48,6.35-13.96,16.77-16.42,31.24l-73.07-21.18
			c4.58-25.76,17.3-45.8,38.12-60.1c20.82-14.3,48.9-21.44,84.2-21.44c41.29,0,72.71,8.48,94.24,25.41
			c21.52,16.94,32.29,42.36,32.29,76.24v96.36c0,13.77,6.36,20.65,19.06,20.65C4479.35,600.34,4484.83,599.63,4489.06,598.22z
			 M4349.82,588.42c9.88-6.88,14.83-15.97,14.83-27.27v-22.76l-42.89,10.06c-11.31,2.83-19.33,6.27-24.09,10.32
			c-4.77,4.07-7.15,9.8-7.15,17.21c0,7.41,2.29,13.07,6.89,16.94c4.58,3.88,10.94,5.82,19.06,5.82
			C4328.82,598.74,4339.93,595.3,4349.82,588.42z"/>
		<path class="st0" d="M4707.05,636.87c-8.83,6.01-20.04,10.86-33.62,14.56c-13.6,3.71-27.26,5.55-41.03,5.55
			c-31.43,0-55.42-6.69-72.01-20.12c-16.6-13.41-25.07-34.94-25.42-64.59V451.03h-45.53v-64.07h45.53v-59.3l90.01-24.88v84.18h79.42
			v64.07h-79.42v106.42c0,23.65,11.65,35.47,34.95,35.47c14.46,0,27.17-3.88,38.12-11.65L4707.05,636.87z"/>
		<path class="st0" d="M4997.36,545.27h-180.55c2.82,16.59,8.92,28.77,18.26,36.54c9.35,7.76,21.8,11.65,37.33,11.65
			c13.07,0,23.74-2.47,32.04-7.41c8.29-4.94,13.85-12.18,16.67-21.71l73.07,23.3c-7.42,22.6-21.8,39.8-43.15,51.62
			c-21.37,11.83-47.57,17.73-78.63,17.73c-46.24,0-81.63-11.99-106.15-36c-24.54-24-36.79-57.88-36.79-101.66
			c0-43.76,11.99-77.65,36-101.66c23.99-24,58.06-36.01,102.18-36.01c42.71,0,75.45,11.74,98.23,35.21
			c22.76,23.48,34.14,56.39,34.14,98.75C5000,527.63,4999.12,537.51,4997.36,545.27z M4816.28,496.56h99.54
			c-4.23-34.59-20.47-51.89-48.71-51.89C4838.52,444.67,4821.57,461.97,4816.28,496.56z"/>
		<path class="st0" d="M2047.42,769.7c23.47,9.88,45.27,25.94,65.39,48.17l-51.36,59.29c-11.65-17.64-25.33-30.6-41.04-38.91
			c-15.71-8.3-34.5-12.44-56.39-12.44c-18.36,0-32.48,3.17-42.36,9.53c-9.89,6.34-14.83,14.81-14.83,25.41
			c0,8.83,5.21,15.99,15.62,21.44c10.4,5.48,28.14,10.51,53.21,15.09c48.36,8.83,82.86,21.72,103.51,38.65
			c20.65,16.94,30.97,40.78,30.97,71.48c0,22.23-6.35,41.49-19.06,57.71c-12.7,16.24-30.27,28.59-52.68,37.06
			c-22.42,8.48-47.74,12.7-75.98,12.7c-39.53,0-71.66-4.85-96.36-14.56c-24.71-9.7-46.07-24.62-64.07-44.73l46.59-63.54
			c13.76,19.06,29.3,32.48,46.59,40.25c17.29,7.77,38.12,11.65,62.48,11.65c19.41,0,33.97-2.74,43.68-8.22
			c9.71-5.46,14.56-13.32,14.56-23.56c0-8.11-5.21-14.73-15.62-19.84c-10.42-5.11-27.8-9.98-52.15-14.56
			c-30-6.01-54.8-13.16-74.39-21.45c-19.59-8.29-34.77-19.49-45.53-33.62c-10.77-14.11-16.15-32.11-16.15-54.01
			c0-21.88,5.91-41.46,17.74-58.76c11.82-17.29,29.12-30.79,51.89-40.51c22.76-9.7,49.68-14.56,80.74-14.56
			C1995.62,754.86,2023.95,759.81,2047.42,769.7z"/>
		<path class="st0" d="M2328.99,1109.62c-9.89,28.23-20.65,50.64-32.3,67.25c-11.65,16.57-25.41,28.48-41.3,35.72
			c-15.88,7.24-35.12,10.87-57.71,10.87c-30.01,0-54-6.54-72.01-19.59l19.06-60.37c5.65,5.3,11.91,8.92,18.8,10.86
			c6.88,1.94,15.8,2.92,26.74,2.92c10.94,0,19.59-1.86,25.94-5.56c6.35-3.72,11.47-10.33,15.36-19.86l6.35-16.42l-30.71-72
			l-78.89-198.55h99.01l40.77,150.9l12.71,56.12l14.3-58.25l40.76-148.77h90.01L2328.99,1109.62z"/>
		<path class="st0" d="M2431.23,1068.31l46.59-50.83c15.17,25.06,41.29,37.59,78.36,37.59c12.35,0,22.05-1.66,29.12-5.03
			c7.06-3.34,10.59-7.84,10.59-13.5c0-4.93-3.63-9.27-10.85-12.98c-7.24-3.69-19.68-7.31-37.33-10.84
			c-39.53-7.77-67.69-18.35-84.45-31.78c-16.77-13.4-25.15-31.22-25.15-53.47c0-15.18,4.77-29.46,14.3-42.89
			c9.53-13.4,23.9-24.26,43.15-32.56c19.24-8.29,42.62-12.45,70.16-12.45c30.35,0,55.14,4.16,74.39,12.45
			c19.24,8.3,34.85,20.74,46.86,37.33l-46.59,45.53c-8.47-12.35-18.53-21.35-30.18-27s-25.59-8.47-41.83-8.47
			c-12.71,0-22.6,1.94-29.65,5.81c-7.06,3.9-10.59,8.66-10.59,14.31c0,5.28,3.61,9.78,10.85,13.5c7.23,3.7,19.86,7.32,37.86,10.84
			c38.83,6.71,66.81,16.69,83.92,29.92c17.12,13.23,25.69,31.33,25.69,54.26c0,25.78-10.77,46.7-32.31,62.75
			c-21.53,16.07-52.77,24.09-93.71,24.09C2499.7,1114.9,2456.64,1099.37,2431.23,1068.31z"/>
		<path class="st0" d="M2928.6,1094.77c-8.82,6.01-20.04,10.87-33.62,14.56c-13.58,3.72-27.26,5.56-41.03,5.56
			c-31.41,0-55.42-6.69-72.01-20.12c-16.59-13.4-25.06-34.94-25.41-64.59V908.94h-45.54v-64.06h45.54v-59.31l90.01-24.87v84.18
			h79.42v64.06h-79.42v106.43c0,23.64,11.64,35.47,34.94,35.47c14.48,0,27.18-3.88,38.12-11.65L2928.6,1094.77z"/>
		<path class="st0" d="M3218.91,1003.19h-180.54c2.81,16.6,8.9,28.77,18.26,36.53c9.35,7.77,21.79,11.65,37.33,11.65
			c13.05,0,23.73-2.46,32.03-7.41c8.29-4.95,13.85-12.19,16.69-21.72l73.06,23.3c-7.41,22.6-21.8,39.8-43.15,51.62
			c-21.35,11.84-47.57,17.73-78.62,17.73c-46.24,0-81.63-11.99-106.16-36c-24.54-24.01-36.79-57.88-36.79-101.65
			c0-43.77,12-77.66,36-101.66c24.01-23.99,58.06-36.01,102.2-36.01c42.71,0,75.45,11.74,98.21,35.22s34.15,56.39,34.15,98.74
			C3221.56,985.55,3220.68,995.42,3218.91,1003.19z M3037.84,954.47h99.54c-4.23-34.59-20.49-51.87-48.72-51.87
			C3060.07,902.6,3043.14,919.88,3037.84,954.47z"/>
		<path class="st0" d="M3677.01,863.94c16.76,16.24,25.14,39.35,25.14,69.36v176.32h-90.01V953.94c0-30.35-12-45.53-36-45.53
			c-14.13,0-25.42,5.11-33.89,15.36c-8.47,10.24-12.7,25.06-12.7,44.48v141.37h-90.01V953.94c0-30.35-12-45.53-36-45.53
			c-13.43,0-24.54,5.11-33.36,15.36c-8.83,10.24-13.25,25.59-13.25,46.06v139.79h-90.01V844.88h80.48l2.66,50.81
			c8.47-18.33,20.29-32.28,35.47-41.81c15.18-9.53,33.01-14.31,53.48-14.31c20.12,0,37.51,4.6,52.15,13.78
			c14.65,9.18,25.15,22.42,31.5,39.72c8.48-17.3,20.56-30.53,36.28-39.72c15.69-9.18,33.26-13.78,52.68-13.78
			C3638.44,839.57,3660.24,847.71,3677.01,863.94z"/>
		<path class="st0" d="M3739.15,1068.31l46.59-50.83c15.18,25.06,41.29,37.59,78.37,37.59c12.34,0,22.05-1.66,29.11-5.03
			c7.06-3.34,10.59-7.84,10.59-13.5c0-4.93-3.62-9.27-10.84-12.98c-7.24-3.69-19.69-7.31-37.34-10.84
			c-39.53-7.77-67.68-18.35-84.45-31.78c-16.77-13.4-25.14-31.22-25.14-53.47c0-15.18,4.77-29.46,14.3-42.89
			c9.53-13.4,23.9-24.26,43.14-32.56c19.24-8.29,42.62-12.45,70.17-12.45c30.35,0,55.14,4.16,74.39,12.45
			c19.23,8.3,34.85,20.74,46.86,37.33l-46.59,45.53c-8.47-12.35-18.53-21.35-30.19-27c-11.64-5.65-25.59-8.47-41.83-8.47
			c-12.7,0-22.6,1.94-29.65,5.81c-7.06,3.9-10.58,8.66-10.58,14.31c0,5.28,3.61,9.78,10.84,13.5c7.24,3.7,19.86,7.32,37.86,10.84
			c38.84,6.71,66.8,16.69,83.93,29.92c17.1,13.23,25.67,31.33,25.67,54.26c0,25.78-10.77,46.7-32.3,62.75
			c-21.53,16.07-52.77,24.09-93.71,24.09C3807.62,1114.9,3764.57,1099.37,3739.15,1068.31z"/>
	</g>
</g>
<polygon class="st0" points="1492.07,209.17 1129.78,0 781.83,200.89 1144.12,410.06 1144.12,828.4 1492.07,627.52 "/>
<polygon class="st1" points="362.29,861.44 362.29,426.59 0,635.76 0,1070.62 376.6,1288.06 738.9,1078.89 738.9,1078.88 "/>
<polygon class="st2" points="405.22,418.32 738.86,610.96 738.86,225.7 "/>
<polygon class="st2" points="1101.16,853.21 767.52,660.58 767.52,1045.84 "/>
<polygon class="st0" points="1115.5,828.44 1115.5,426.58 767.48,225.66 767.48,627.52 "/>
<polygon class="st0" points="767.48,225.65 767.48,225.66 1115.5,426.58 "/>
<polygon class="st0" points="781.83,200.89 1144.12,410.06 781.83,200.89 "/>
<polygon class="st3" points="390.91,844.93 738.9,1045.84 738.9,644.02 390.91,443.11 "/>
<polygon class="st0" points="362.29,426.59 362.29,426.59 362.29,426.59 "/>
</svg>
