<svg xmlns="http://www.w3.org/2000/svg" width="260" height="70" fill="none"><g clip-path="url(#a)"><path fill="#fff" d="M109.526 19.393c1.507 1.59 2.264 3.856 2.264 6.815s-.757 5.226-2.264 6.815c-1.515 1.59-3.683 2.38-6.527 2.38h-7.692v-18.39h7.692q4.254-.001 6.527 2.38m-3.646 10.995q1.07-1.39 1.069-4.18 0-2.79-1.069-4.179c-.713-.926-1.834-1.393-3.349-1.393h-2.502v11.145h2.502q2.281-.002 3.349-1.393m21.755-.588h-9.37c.148.874.46 1.514.95 1.92q.725.61 1.938.61c.676 0 1.233-.127 1.663-.391.431-.264.721-.64.869-1.145l3.794 1.228c-.386 1.19-1.128 2.093-2.242 2.718q-1.66.936-4.076.934c-2.399 0-4.233-.633-5.51-1.898-1.269-1.265-1.908-3.042-1.908-5.346s.624-4.09 1.871-5.347q1.872-1.897 5.302-1.897c2.212 0 3.913.617 5.093 1.852q1.773 1.852 1.775 5.196c-.008.64-.052 1.16-.149 1.566m-9.392-2.56h5.167q-.331-2.733-2.524-2.733c-1.493 0-2.369.91-2.643 2.733m21.963 7.38c-.461.316-1.04.572-1.745.768a8 8 0 0 1-2.131.294c-1.634 0-2.874-.354-3.735-1.062q-1.29-1.06-1.322-3.396v-6.379h-2.361v-3.373h2.361v-3.118l4.671-1.31v4.428h4.121v3.373h-4.121v5.603c0 1.242.601 1.867 1.811 1.867.75 0 1.411-.203 1.975-.61zm15.065-4.82h-9.37c.148.874.46 1.514.95 1.92.49.407 1.129.61 1.938.61.676 0 1.232-.127 1.663-.391s.72-.64.869-1.145l3.794 1.228c-.386 1.19-1.129 2.093-2.242 2.718q-1.659.936-4.084.934-3.595 0-5.509-1.898c-1.27-1.265-1.909-3.042-1.909-5.346s.624-4.09 1.871-5.347q1.872-1.897 5.302-1.897c2.212 0 3.913.617 5.093 1.852q1.773 1.852 1.775 5.196c-.008.64-.052 1.16-.141 1.566m-9.4-2.56h5.168q-.333-2.733-2.525-2.733-2.229 0-2.643 2.733m21.859-5.738-.498 4.014a2.8 2.8 0 0 0-.742-.294 3.8 3.8 0 0 0-.988-.128q-1.316.002-2.197.85c-.587.566-.876 1.379-.876 2.44v7.019h-4.671V21.472h4.121l.193 3.012c.327-1.062.847-1.868 1.552-2.44q1.06-.849 2.621-.85c.631 0 1.121.105 1.485.308m22.899.971c.868.851 1.306 2.071 1.306 3.653v9.277h-4.67V27.21q0-2.395-1.871-2.395-1.103.002-1.76.806c-.438.542-.661 1.318-.661 2.342v7.44h-4.67V27.21q0-2.395-1.871-2.395c-.698 0-1.27.271-1.73.806-.46.542-.683 1.348-.683 2.425v7.357h-4.67V21.472h4.172l.134 2.673c.438-.964 1.054-1.702 1.841-2.199s1.716-.753 2.777-.753q1.569 0 2.703.723c.757.482 1.307 1.182 1.634 2.093.438-.91 1.069-1.603 1.878-2.093q1.227-.723 2.732-.723c1.404 0 2.532.43 3.409 1.28m4.499-3.163q-.646-.54-.646-1.716 0-1.198.646-1.74t2.072-.542q1.425 0 2.071.542.646.543.646 1.74c0 .783-.215 1.348-.646 1.717q-.645.542-2.071.542t-2.072-.542Zm4.41 16.093h-4.67V21.472h4.67zm15.504-12.93q1.292 1.278 1.292 3.653v9.277h-4.671v-7.967q-.001-1.422-.504-2.018c-.342-.4-.817-.603-1.441-.603q-1.102 0-1.782.791-.69.79-.69 2.44v7.357h-4.671V21.472h4.173l.141 2.673q.657-1.479 1.871-2.214c.802-.49 1.753-.738 2.829-.738 1.433 0 2.592.43 3.453 1.28m18.451 10.114-.357 2.643c-.534.293-1.15.444-1.871.444q-2.962 0-3.541-2.146c-.824 1.43-2.458 2.146-4.893 2.146q-2.062.002-3.156-.889c-.735-.594-1.099-1.46-1.099-2.59 0-1.19.416-2.146 1.247-2.884.832-.73 2.206-1.295 4.107-1.687l3.103-.61v-.504c0-.633-.178-1.13-.52-1.507-.349-.368-.824-.557-1.425-.557-.698 0-1.262.166-1.701.505-.438.331-.727.88-.853 1.641l-3.795-1.114q.359-2.034 1.976-3.163c1.076-.753 2.539-1.13 4.365-1.13 2.146 0 3.772.445 4.893 1.341 1.114.889 1.678 2.229 1.678 4.014v5.068q-.002 1.084.988 1.084c.349.008.631-.03.854-.105m-7.225-.513c.513-.361.773-.843.773-1.438V29.44l-2.228.527q-.88.225-1.247.542c-.245.211-.372.512-.372.904q0 .585.357.888.354.308.987.31a2.88 2.88 0 0 0 1.73-.535Zm18.533 2.546c-.46.316-1.039.572-1.745.768a8 8 0 0 1-2.131.294c-1.633 0-2.873-.354-3.735-1.062q-1.29-1.06-1.321-3.396v-6.379h-2.361v-3.373h2.361v-3.118l4.67-1.31v4.428h4.121v3.373h-4.121v5.603c0 1.242.602 1.867 1.812 1.867.75 0 1.411-.203 1.975-.61zm15.065-4.82h-9.37c.149.874.46 1.514.95 1.92.49.407 1.129.61 1.938.61.676 0 1.233-.127 1.664-.391s.72-.64.868-1.145l3.794 1.228c-.386 1.19-1.128 2.093-2.242 2.718q-1.657.936-4.084.934-3.595 0-5.509-1.898c-1.27-1.265-1.908-3.042-1.908-5.346s.624-4.09 1.871-5.347q1.87-1.897 5.301-1.897 3.321 0 5.094 1.852c1.18 1.235 1.774 2.967 1.774 5.196q-.009.959-.141 1.566m-9.392-2.56h5.168c-.223-1.822-1.062-2.733-2.525-2.733-1.492 0-2.369.91-2.643 2.733M106.801 41.615c1.217.52 2.346 1.363 3.393 2.538l-2.666 3.118q-.904-1.392-2.131-2.049-1.223-.655-2.925-.655c-.95 0-1.686.166-2.198.505-.512.331-.772.783-.772 1.34q-.002.7.809 1.13.813.43 2.762.79 3.765.7 5.369 2.033 1.603 1.336 1.603 3.766c0 1.167-.326 2.184-.987 3.034-.661.851-1.574 1.506-2.733 1.95q-1.748.669-3.942.67c-2.049 0-3.72-.255-4.997-.767a8.64 8.64 0 0 1-3.327-2.357l2.421-3.344q1.071 1.505 2.42 2.116c.899.407 1.976.61 3.245.61 1.01 0 1.76-.143 2.265-.429q.757-.429.757-1.242c0-.43-.267-.776-.809-1.047q-.812-.407-2.703-.768-2.337-.474-3.86-1.13-1.527-.653-2.362-1.77c-.557-.745-.839-1.686-.839-2.838q-.001-1.728.92-3.095.925-1.365 2.696-2.131 1.77-.768 4.188-.768c1.715.007 3.185.263 4.403.79M121.413 59.5c-.512 1.483-1.069 2.666-1.678 3.539-.601.873-1.322 1.498-2.146 1.883-.824.384-1.819.572-2.992.572-1.559 0-2.799-.347-3.735-1.032l.988-3.178c.289.28.616.467.972.573.357.105.817.15 1.389.15.564 0 1.017-.097 1.344-.293.326-.196.594-.542.794-1.047l.327-.866-1.596-3.788-4.092-10.452h5.138l2.117 7.937.66 2.952.743-3.065 2.116-7.831h4.67zm5.301-2.176 2.421-2.674c.787 1.318 2.146 1.98 4.069 1.98q.959-.002 1.507-.263c.364-.173.55-.414.55-.708 0-.256-.186-.49-.565-.685q-.567-.292-1.938-.572c-2.049-.407-3.512-.964-4.38-1.672-.869-.708-1.307-1.641-1.307-2.816q-.002-1.198.742-2.26c.498-.707 1.24-1.28 2.243-1.716.995-.437 2.212-.655 3.638-.655q2.36 0 3.861.655a5.74 5.74 0 0 1 2.428 1.965l-2.421 2.395q-.655-.972-1.566-1.423c-.609-.302-1.329-.445-2.168-.445-.661 0-1.174.106-1.537.309-.364.203-.55.46-.55.753 0 .279.186.512.564.708.379.196 1.033.384 1.968.572 2.012.354 3.468.881 4.351 1.574.884.693 1.329 1.65 1.329 2.854q.002 2.033-1.678 3.298c-1.114.844-2.74 1.265-4.863 1.265-3.141.015-5.376-.805-6.698-2.44Zm25.81 1.393c-.461.316-1.04.572-1.745.768a8 8 0 0 1-2.131.293c-1.634 0-2.874-.353-3.735-1.061s-1.299-1.838-1.322-3.396v-6.379h-2.361V45.57h2.361v-3.12l4.671-1.31v4.428h4.121v3.373h-4.121v5.603c0 1.242.601 1.867 1.811 1.867.75 0 1.411-.203 1.975-.61l.476 2.915Zm15.065-4.82h-9.37c.148.874.46 1.514.95 1.92q.724.61 1.938.61 1.015.002 1.663-.391c.431-.264.72-.64.869-1.145l3.794 1.228c-.386 1.19-1.129 2.093-2.242 2.718q-1.66.936-4.077.934-3.595 0-5.509-1.898c-1.277-1.265-1.908-3.042-1.908-5.346s.623-4.09 1.871-5.347q1.87-1.897 5.301-1.897 3.321 0 5.094 1.852 1.772 1.852 1.774 5.196c-.014.64-.059 1.16-.148 1.566m-9.393-2.56h5.168c-.223-1.822-1.062-2.726-2.524-2.726-1.493-.008-2.369.904-2.644 2.726m33.16-4.767q1.305 1.278 1.307 3.652V59.5h-4.67v-8.193q0-2.395-1.871-2.395-1.103.002-1.76.806c-.438.535-.661 1.318-.661 2.342v7.44h-4.67v-8.193q0-2.395-1.871-2.395c-.698 0-1.27.271-1.73.806q-.691.811-.691 2.425V59.5h-4.67V45.569h4.173l.141 2.673c.438-.964 1.054-1.702 1.841-2.199s1.715-.753 2.777-.753c1.047 0 1.945.241 2.703.723s1.307 1.182 1.633 2.093c.438-.91 1.069-1.604 1.886-2.093.817-.482 1.723-.723 2.733-.723 1.403 0 2.531.43 3.4 1.28m3.223 10.754 2.42-2.674c.787 1.318 2.146 1.98 4.069 1.98q.96-.002 1.507-.263c.364-.173.55-.414.55-.708 0-.256-.186-.49-.565-.685s-1.024-.384-1.937-.572q-3.076-.61-4.381-1.672c-.869-.708-1.307-1.641-1.307-2.816 0-.799.245-1.552.743-2.26.497-.707 1.239-1.28 2.234-1.716.995-.437 2.213-.655 3.639-.655 1.574 0 2.858.218 3.861.655a5.74 5.74 0 0 1 2.428 1.965l-2.421 2.395q-.655-.972-1.567-1.423c-.601-.294-1.329-.445-2.168-.445-.661 0-1.173.106-1.537.309s-.549.46-.549.753c0 .279.186.512.564.708.379.196 1.032.384 1.968.572q3.02.533 4.358 1.574c.891.693 1.329 1.65 1.329 2.854q.002 2.033-1.678 3.298c-1.113.844-2.74 1.265-4.863 1.265-3.141.015-5.376-.805-6.697-2.44Z"/><path fill="url(#b)" d="M78.556 35.004V11.999L58.917.5 39.278 11.999v23.005l19.64 11.498z"/><path fill="url(#c)" d="M39.278 58.001V34.996L19.64 23.497 0 34.998V58l19.639 11.5z"/><path fill="url(#d)" d="M58.917 46.502V23.497L39.278 12 19.64 23.497v23.005l19.64 11.5 19.638-11.5Z"/></g><defs><linearGradient id="b" x1="74.408" x2="42.993" y1="7.791" y2="38.767" gradientUnits="userSpaceOnUse"><stop offset=".114" stop-color="#FAA61A"/><stop offset=".216" stop-color="#F78C28"/><stop offset=".404" stop-color="#F3623D"/><stop offset=".573" stop-color="#F0434D"/><stop offset=".717" stop-color="#EF3157"/><stop offset=".818" stop-color="#EE2A5A"/></linearGradient><linearGradient id="c" x1="36.749" x2="2.134" y1="31.94" y2="60.579" gradientUnits="userSpaceOnUse"><stop offset=".078" stop-color="#0D4BA0"/><stop offset=".249" stop-color="#0A60B1" stop-opacity=".785"/><stop offset=".6" stop-color="#0296DB" stop-opacity=".343"/><stop offset=".675" stop-color="#00A2E5" stop-opacity=".248"/><stop offset=".903" stop-color="#00AEEF" stop-opacity=".1"/></linearGradient><linearGradient id="d" x1="54.77" x2="23.354" y1="19.29" y2="50.266" gradientUnits="userSpaceOnUse"><stop offset=".119" stop-color="#D01B8E" stop-opacity=".9"/><stop offset=".221" stop-color="#B82492" stop-opacity=".886"/><stop offset=".436" stop-color="#7B3B9E" stop-opacity=".855"/><stop offset=".745" stop-color="#1A5FB0" stop-opacity=".811"/><stop offset=".826" stop-color="#0069B5" stop-opacity=".8"/></linearGradient><clipPath id="a"><path fill="#fff" d="M0 .5h260v69H0z"/></clipPath></defs></svg>