<svg xmlns="http://www.w3.org/2000/svg" width="28" height="28"><path fill="#24292f" fill-rule="evenodd" d="M14.126.348C6.51.348.354 6.55.354 14.222A13.86 13.86 0 0 0 9.77 27.385c.684.138.935-.299.935-.666 0-.322-.023-1.424-.023-2.573-3.831.827-4.629-1.654-4.629-1.654-.616-1.608-1.528-2.021-1.528-2.021-1.254-.85.091-.85.091-.85 1.391.092 2.121 1.424 2.121 1.424 1.231 2.113 3.215 1.516 4.013 1.148.114-.896.48-1.516.867-1.86-3.056-.322-6.27-1.516-6.27-6.846 0-1.516.546-2.756 1.413-3.721-.137-.345-.616-1.769.137-3.676 0 0 1.163-.367 3.785 1.425a13.3 13.3 0 0 1 3.443-.46c1.163 0 2.348.161 3.443.46 2.622-1.792 3.785-1.425 3.785-1.425.753 1.907.274 3.331.137 3.676.89.965 1.414 2.205 1.414 3.721 0 5.33-3.215 6.501-6.294 6.846.502.436.935 1.263.935 2.572 0 1.861-.022 3.354-.022 3.814 0 .367.25.804.934.666a13.86 13.86 0 0 0 9.417-13.163C27.898 6.55 21.72.348 14.125.348" clip-rule="evenodd" style="fill:#000;fill-opacity:1;stroke-width:.281909"/></svg>