<svg xmlns="http://www.w3.org/2000/svg" width="28" height="28" fill-rule="evenodd" clip-rule="evenodd" image-rendering="optimizeQuality" shape-rendering="geometricPrecision" text-rendering="geometricPrecision"><path fill="#fff" d="M23.783 5.652a3.17 3.17 0 0 1 2.227 2.242c.526 1.977.526 6.102.526 6.102s0 4.126-.526 6.103a3.17 3.17 0 0 1-2.227 2.242c-1.965.53-9.843.53-9.843.53s-7.877 0-9.842-.53A3.17 3.17 0 0 1 1.871 20.1c-.527-1.977-.527-6.103-.527-6.103s0-4.125.527-6.102a3.17 3.17 0 0 1 2.227-2.242c1.965-.53 9.842-.53 9.842-.53s7.878 0 9.843.53m-12.42 12.09 6.585-3.745-6.584-3.746z" style="fill:#000;stroke-width:.0492028"/></svg>