<svg xmlns="http://www.w3.org/2000/svg" aria-labelledby="t d" style="--fg:#ffffff;--mu:#c3c2b7;--tr:#383835;--s0:#3987e5;--s1:#d95926;--s2:#199e70;--s3:#c98500;--s4:#d55181;--s5:#008300" viewBox="0 0 640 400"><title id="t">Nix Vegas 2025: where the money went</title><desc id="d">$13,040 spent, $6,500 from sponsors. DEF CON badges $3,600; Shirts &amp; stickers $4,268; Art &amp; signage $934; Nix Badge $3,386; Infra &amp; other $852</desc><style>text{font-family:system-ui,-apple-system,&quot;Segoe UI&quot;,sans-serif}</style><text x="24" y="40" fill="var(--fg)" font-size="26" font-weight="700">2025</text><text x="24" y="64" fill="var(--mu)" font-size="14">$13,040 spent, $6,500 from sponsors</text><path fill="var(--s0)" d="M151.17 88.01a112 112 0 0 1 109.52 129.1l-41.51-6.42A70 70 0 0 0 150.73 130Z"/><path fill="var(--s1)" d="M260.3 219.42a112 112 0 0 1-177.11 70.47l25.05-33.71a70 70 0 0 0 110.7-44.04Z"/><path fill="var(--s2)" d="M81.32 288.47a112 112 0 0 1-30.59-36.61l37.23-19.45a70 70 0 0 0 19.12 22.89Z"/><path fill="var(--s4)" d="M49.67 249.77a112 112 0 0 1 54.58-152l17.16 38.34a70 70 0 0 0-34.12 95Z"/><path fill="var(--s5)" d="M106.4 96.83a112 112 0 0 1 42.43-8.82l.44 41.99a70 70 0 0 0-26.52 5.52Z"/><text x="150" y="206" fill="var(--fg)" font-size="26" font-weight="700" text-anchor="middle">$13.0k</text><text x="150" y="226" fill="var(--mu)" font-size="13" text-anchor="middle">spent</text><rect width="13" height="13" x="304" y="113" fill="var(--s1)" rx="3"/><text x="326" y="124" fill="var(--fg)" font-size="14">Shirts &amp; stickers</text><text x="556" y="124" fill="var(--fg)" font-size="14" style="font-variant-numeric:tabular-nums" text-anchor="end">$4,268</text><text x="616" y="124" fill="var(--mu)" font-size="13" style="font-variant-numeric:tabular-nums" text-anchor="end">33%</text><rect width="13" height="13" x="304" y="143" fill="var(--s0)" rx="3"/><text x="326" y="154" fill="var(--fg)" font-size="14">DEF CON badges</text><text x="556" y="154" fill="var(--fg)" font-size="14" style="font-variant-numeric:tabular-nums" text-anchor="end">$3,600</text><text x="616" y="154" fill="var(--mu)" font-size="13" style="font-variant-numeric:tabular-nums" text-anchor="end">28%</text><rect width="13" height="13" x="304" y="173" fill="var(--s4)" rx="3"/><text x="326" y="184" fill="var(--fg)" font-size="14">Nix Badge</text><text x="556" y="184" fill="var(--fg)" font-size="14" style="font-variant-numeric:tabular-nums" text-anchor="end">$3,386</text><text x="616" y="184" fill="var(--mu)" font-size="13" style="font-variant-numeric:tabular-nums" text-anchor="end">26%</text><rect width="13" height="13" x="304" y="203" fill="var(--s2)" rx="3"/><text x="326" y="214" fill="var(--fg)" font-size="14">Art &amp; signage</text><text x="556" y="214" fill="var(--fg)" font-size="14" style="font-variant-numeric:tabular-nums" text-anchor="end">$934</text><text x="616" y="214" fill="var(--mu)" font-size="13" style="font-variant-numeric:tabular-nums" text-anchor="end">7%</text><rect width="13" height="13" x="304" y="233" fill="var(--s5)" rx="3"/><text x="326" y="244" fill="var(--fg)" font-size="14">Infra &amp; other</text><text x="556" y="244" fill="var(--fg)" font-size="14" style="font-variant-numeric:tabular-nums" text-anchor="end">$852</text><text x="616" y="244" fill="var(--mu)" font-size="13" style="font-variant-numeric:tabular-nums" text-anchor="end">7%</text><rect width="592" height="14" x="24" y="346" fill="#d03b3b" rx="4"/><rect width="295.1" height="14" x="24" y="346" fill="#0ca30c" rx="4"/><path fill="var(--fg)" d="M318.1 343h2v20h-2z"/><text x="24" y="337" fill="var(--fg)" font-size="13" font-weight="600">✓ Covered by sponsors: $6,500 (50%)</text><text x="616" y="337" fill="var(--fg)" font-size="13" font-weight="600" text-anchor="end">✕ Out of pocket: $6,540</text><text x="24" y="380" fill="var(--mu)" font-size="13">In the red</text></svg>